<svg xmlns="http://www.w3.org/2000/svg" xmlns:xlink="http://www.w3.org/1999/xlink" viewBox="0 0 256 256"><defs><style>.eca28bce-e90b-4a15-bb02-7b413035cec1{fill:#fff;}.f2acb96e-581c-4a4a-aaa4-ea39def7418b{fill:url(#b5e222eb-d1ce-4021-bb77-4ede62510df3);}.b3c0535e-f42e-4ffd-b26b-b9a86f7bc582{fill:url(#b6c5f7a6-e77c-4d81-ae10-748c4548fc58);}.f29b98ba-24d5-4e0f-bc2c-d41bb74a7a83{fill:#69c4a3;}</style><linearGradient id="b5e222eb-d1ce-4021-bb77-4ede62510df3" x1="206.33" y1="-3271.56" x2="207.72" y2="-3271.56" gradientTransform="matrix(1, 0, 0, -1, 0, -3190.78)" gradientUnits="userSpaceOnUse"><stop offset="0" stop-color="#6867af"/><stop offset="0.52" stop-color="#11aecf"/><stop offset="1" stop-color="#69c4a3"/></linearGradient><linearGradient id="b6c5f7a6-e77c-4d81-ae10-748c4548fc58" x1="31.1" y1="-3318.78" x2="224.9" y2="-3318.78" xlink:href="#b5e222eb-d1ce-4021-bb77-4ede62510df3"/></defs><g id="b54149e1-4c91-47b3-8793-12eeaf2788dd" data-name="Layer 2"><g id="bc76819b-a016-4e8f-9aec-aeec01881dc3" data-name="ade8c9af-8376-4472-9bc3-28567412a130"><rect class="eca28bce-e90b-4a15-bb02-7b413035cec1" width="256" height="256"/><g id="add6d1e0-1844-45e9-a9c4-f034b97d5a32" data-name="logoMark"><path id="e269f2fb-f503-4abc-a568-99755834bc60" data-name="logoMark PathItem " class="f2acb96e-581c-4a4a-aaa4-ea39def7418b" d="M207.72,81.21c-.45-.3-.92-.58-1.39-.85A13.25,13.25,0,0,0,207.72,81.21Z"/><path id="bc71581b-3ade-4228-933a-005937371cd2" data-name="logoMark PathItem 2" class="b3c0535e-f42e-4ffd-b26b-b9a86f7bc582" d="M148.05,100.71v54.58h0a46.78,46.78,0,0,1-93.56,0V81.22a27.29,27.29,0,0,1,54.58,0v74.07a7.8,7.8,0,0,1-15.59,0V81.22a11.7,11.7,0,0,0-23.39,0v74.07a31.19,31.19,0,0,0,62.37,0V81.22a50.68,50.68,0,0,0-101.36,0v74.07a70.17,70.17,0,0,0,140.34,0V100.71a23.37,23.37,0,0,1,34.89-20.35l-.26-.17.26.17c.47.27.94.55,1.39.85A11.76,11.76,0,0,0,220.6,61.68a46.77,46.77,0,0,0-72.55,39Z"/><circle id="b383266f-2ef1-4ab6-be4f-5d7671dade97" data-name="logoMark PathItem 3" class="f29b98ba-24d5-4e0f-bc2c-d41bb74a7a83" cx="198.73" cy="104.61" r="11.69"/></g></g></g></svg>